<svg id="Calque_1" data-name="Calque 1" xmlns="http://www.w3.org/2000/svg" xmlns:xlink="http://www.w3.org/1999/xlink" viewBox="0 0 1010.12 505.06"><defs><style>.cls-1,.cls-11{fill:none;}.cls-2{fill:#cbe6dc;}.cls-3,.cls-8{fill:#1c1e3f;}.cls-11,.cls-3{stroke:#1c1e3f;stroke-miterlimit:10;}.cls-4{fill:#233879;}.cls-5{fill:#131229;}.cls-6{clip-path:url(#clip-path);}.cls-7{clip-path:url(#clip-path-2);}.cls-9{clip-path:url(#clip-path-3);}.cls-10{clip-path:url(#clip-path-4);}.cls-12{clip-path:url(#clip-path-5);}.cls-13{clip-path:url(#clip-path-6);}.cls-14{clip-path:url(#clip-path-7);}.cls-15{fill:#010101;}.cls-16{fill:#e30d13;}.cls-17{fill:#429e7f;}.cls-18{fill:#079c7d;}.cls-19{fill:#b2dcd9;}.cls-20{fill:#e6204e;}.cls-21{clip-path:url(#clip-path-8);}.cls-22{clip-path:url(#clip-path-9);}.cls-23{clip-path:url(#clip-path-10);}.cls-24{clip-path:url(#clip-path-11);}.cls-25{clip-path:url(#clip-path-12);}.cls-26{clip-path:url(#clip-path-13);}.cls-27{clip-path:url(#clip-path-14);}.cls-28{clip-path:url(#clip-path-15);}.cls-29{clip-path:url(#clip-path-16);}.cls-30{clip-path:url(#clip-path-17);}.cls-31{clip-path:url(#clip-path-18);}.cls-32{clip-path:url(#clip-path-19);}.cls-33{clip-path:url(#clip-path-20);}.cls-34{clip-path:url(#clip-path-21);}.cls-35{clip-path:url(#clip-path-22);}.cls-36{clip-path:url(#clip-path-23);}.cls-37{clip-path:url(#clip-path-24);}.cls-38{clip-path:url(#clip-path-25);}.cls-39{fill:#1d223e;}</style><clipPath id="clip-path"><circle class="cls-1" cx="-1797.83" cy="9187.32" r="827.14"/></clipPath><clipPath id="clip-path-2"><rect class="cls-2" x="-1236.99" y="-213.56" width="485.19" height="485.19"/></clipPath><clipPath id="clip-path-3"><circle class="cls-3" cx="-1280.88" cy="210.92" r="698.62"/></clipPath><clipPath id="clip-path-4"><rect class="cls-1" x="-2277.35" y="-650.95" width="1823.06" height="1516.51" transform="translate(-2665.47 -326.16) rotate(-157.06)"/></clipPath><clipPath id="clip-path-5"><rect class="cls-2" x="505.06" width="505.06" height="505.06"/></clipPath><clipPath id="clip-path-6"><circle class="cls-3" cx="445.88" cy="460.1" r="727.23"/></clipPath><clipPath id="clip-path-7"><rect class="cls-1" x="-591.4" y="-437.07" width="1897.72" height="1578.61" transform="translate(549.39 815.93) rotate(-157.06)"/></clipPath><clipPath id="clip-path-8"><path class="cls-4" d="M803.28,618.21s41.94,41.3-12.51,39.92c0,0-118.91-26.76-124.42,56.24,0,0-32.34,42.75-111.92,41.22,0,0-76.52-24.67-153.22,111.74,0,0-23.55,67.42-32.29,0,0,0-18.63-134.88-161.46-144.46,0,0-52.23-9.55-115.57-57.79C74,651.46,67,644.86,52.8,639.59c0,0-90.16-27-41-78.43,0,0-27-49.76-89.83-8.25,0,0-109.93,33.41-71.52,127.47,0,0,38.89,38.59,107.39,50.06l104,35.11s41.58,177.77,114.51,240.24c0,0,13.5,79.75,15.9,129,0,0,95.95,95.38,390.4,39.6,0,0,12.71-93.38,35.8-171.09,0,0,103.59-93.29,102.29-241.32,0,0,103.73,79.18,181.16,17.8,0,0,61.5-64.68,8.31-121.63C910.2,658.13,853.55,595.68,803.28,618.21Z"/></clipPath><clipPath id="clip-path-9"><rect class="cls-5" x="-231.62" y="77.07" width="1174.01" height="1203.04" transform="translate(710.78 1357.18) rotate(-180)"/></clipPath><clipPath id="clip-path-10"><rect class="cls-2" x="505.06" y="601.64" width="505.06" height="505.06"/></clipPath><clipPath id="clip-path-11"><circle class="cls-3" cx="506.65" cy="1075.76" r="727.23"/></clipPath><clipPath id="clip-path-12"><rect class="cls-1" x="-530.63" y="178.6" width="1897.72" height="1578.61" transform="translate(426.19 2022.28) rotate(-157.06)"/></clipPath><clipPath id="clip-path-13"><path class="cls-4" d="M864.06,1233.88s41.93,41.3-12.52,39.92c0,0-118.91-26.76-124.42,56.24,0,0-32.34,42.75-111.92,41.22,0,0-76.52-24.67-153.22,111.74,0,0-23.55,67.42-32.29,0,0,0-18.63-134.88-161.46-144.46,0,0-52.22-9.55-115.57-57.79-17.89-13.62-24.84-20.22-39.09-25.49,0,0-90.16-27-41-78.43,0,0-27-49.76-89.83-8.25,0,0-109.93,33.41-71.51,127.47,0,0,38.89,38.59,107.39,50.06l104,35.11S164.19,1559,237.11,1621.46c0,0,13.5,79.75,15.9,129,0,0,95.95,95.38,390.4,39.6,0,0,12.71-93.38,35.81-171.09,0,0,103.58-93.29,102.28-241.32,0,0,103.73,79.18,181.16,17.8,0,0,61.5-64.68,8.32-121.63C971,1273.8,914.32,1211.35,864.06,1233.88Z"/></clipPath><clipPath id="clip-path-14"><rect class="cls-5" x="-170.84" y="692.74" width="1174.01" height="1203.04" transform="translate(832.33 2588.52) rotate(-180)"/></clipPath><clipPath id="clip-path-15"><rect class="cls-2" y="601.64" width="505.06" height="505.06" transform="translate(505.06 1708.34) rotate(-180)"/></clipPath><clipPath id="clip-path-16"><circle class="cls-3" cx="503.47" cy="1075.76" r="727.23"/></clipPath><clipPath id="clip-path-17"><rect class="cls-1" x="-356.97" y="178.6" width="1897.72" height="1578.61" transform="translate(-330.41 307.2) rotate(-22.94)"/></clipPath><clipPath id="clip-path-18"><path class="cls-4" d="M146.07,1233.88s-41.94,41.3,12.51,39.92c0,0,118.91-26.76,124.42,56.24,0,0,32.34,42.75,111.92,41.22,0,0,76.52-24.67,153.22,111.74,0,0,23.55,67.42,32.29,0,0,0,18.63-134.88,161.46-144.46,0,0,52.23-9.55,115.57-57.79,17.89-13.62,24.85-20.22,39.09-25.49,0,0,90.16-27,41-78.43,0,0,27-49.76,89.83-8.25,0,0,109.93,33.41,71.52,127.47,0,0-38.89,38.59-107.4,50.06l-104,35.11S845.94,1559,773,1621.46c0,0-13.5,79.75-15.9,129,0,0-96,95.38-390.4,39.6,0,0-12.71-93.38-35.81-171.09,0,0-103.58-93.29-102.28-241.32,0,0-103.73,79.18-181.16,17.8,0,0-61.5-64.68-8.32-121.63C39.14,1273.8,95.8,1211.35,146.07,1233.88Z"/></clipPath><clipPath id="clip-path-19"><rect class="cls-5" x="6.95" y="692.74" width="1174.01" height="1203.04"/></clipPath><clipPath id="clip-path-20"><rect class="cls-2" width="505.06" height="505.06" transform="translate(505.06 505.06) rotate(-180)"/></clipPath><clipPath id="clip-path-21"><circle class="cls-3" cx="564.24" cy="460.1" r="727.23"/></clipPath><clipPath id="clip-path-22"><rect class="cls-1" x="-296.2" y="-437.07" width="1897.72" height="1578.61" transform="translate(-85.67 282.2) rotate(-22.94)"/></clipPath><clipPath id="clip-path-23"><path class="cls-4" d="M206.84,618.21s-41.94,41.3,12.51,39.92c0,0,118.91-26.76,124.43,56.24,0,0,32.33,42.75,111.92,41.22,0,0,76.51-24.67,153.21,111.74,0,0,23.56,67.42,32.29,0,0,0,18.63-134.88,161.46-144.46,0,0,52.23-9.55,115.57-57.79,17.89-13.62,24.85-20.22,39.09-25.49,0,0,90.16-27,41-78.43,0,0,27-49.76,89.83-8.25,0,0,109.93,33.41,71.52,127.47,0,0-38.89,38.59-107.39,50.06l-104,35.11s-41.58,177.77-114.51,240.24c0,0-13.5,79.75-15.9,129,0,0-96,95.38-390.4,39.6,0,0-12.71-93.38-35.8-171.09,0,0-103.59-93.29-102.29-241.32,0,0-103.73,79.18-181.16,17.8,0,0-61.5-64.68-8.31-121.63C99.92,658.13,156.58,595.68,206.84,618.21Z"/></clipPath><clipPath id="clip-path-24"><rect class="cls-5" x="67.72" y="77.07" width="1174.01" height="1203.04"/></clipPath><clipPath id="clip-path-25"><rect class="cls-1" x="-609.26" y="360.46" width="482.36" height="482.36"/></clipPath></defs><rect class="cls-2" x="-1236.99" y="-213.56" width="485.19" height="485.19"/><g class="cls-7"><circle class="cls-8" cx="-1280.88" cy="210.92" r="698.62"/><g class="cls-9"><g class="cls-10"><polygon class="cls-5" points="-2121.18 1205.6 -2012.5 1445.16 59.3 480.48 -49.39 240.91 -2121.18 1205.6"/></g></g><circle class="cls-11" cx="-1280.88" cy="210.92" r="698.62"/></g><rect class="cls-2" x="505.06" width="505.06" height="505.06"/><g class="cls-12"><rect class="cls-3" x="-512.04" y="-515.66" width="1912.65" height="1912.65" transform="translate(888.58 881.33) rotate(-180)"/><circle class="cls-8" cx="445.88" cy="460.1" r="727.23"/><g class="cls-13"><g class="cls-14"><polygon class="cls-3" points="-919.43 519.56 -806.29 768.93 1350.35 -235.26 1237.21 -484.63 -919.43 519.56"/><polygon class="cls-3" points="-637.99 988.54 -524.85 1237.92 1631.78 233.73 1518.64 -15.65 -637.99 988.54"/><polygon class="cls-3" points="-524.61 1237.58 -411.48 1486.95 1745.16 482.76 1632.02 233.39 -524.61 1237.58"/><polygon class="cls-5" points="-428.83 1495.51 -315.7 1744.88 1840.94 740.69 1727.8 491.31 -428.83 1495.51"/></g></g><circle class="cls-11" cx="445.88" cy="460.1" r="727.23"/><path class="cls-2" d="M-140,894.71c-9.47-12.12-18.06-32.43-26.72-45.08,15.7-23.89,32-46.75,46.76-64,0,0,17.39-28.45,26.87-49,0,0,61.65-202.32,185.73-212.6,0,0,96.42-3.16,122.5-11.06,0,0,119.34-4.74,184.94-138.31V330.38l1.58-62.44-30-83s-23.71-52.16,31.61-63.23c0,0,91.68,12.65,71.92-98.79,0,0-19.76-96.42,59.28-66.78,0,0,87.72,36.75,91.28,119.73,0,0-15.41,26.08,0,32l47,40.7s11.78,7.66,3.17,18.18c-5.34,6.52-4.75,4.74-4.75,4.74s-15,11.86-12.64,21.34c0,0-2.37,9.49,4,14.23,0,0,9.7,4.65-6.11,30.73,0,0,13.63,16.61-1.53,32.85l-3.42,13.87s7.9,19,3.16,28.45c0,0-.79,31.62-78.25,33.2,0,0-44.25,19.76-53.74,50.58,0,0,3.16,88.52,6.32,105.11,0,0,52,31.43,60.86,33.2,4,.79,56.9,12.64,69.55,19.76,0,0,58.48,189.68,36.35,173.08,0,0-264.76,144-313.76,177.15,0,0-205.49-189.8-289.26-203.23,0,0-34,98-127.25,185.73,0,0-24.72,39-47.3,72.84A686.1,686.1,0,0,1-140,894.71Z"/><path class="cls-15" d="M634.82,174.68c-1.39,3.7,15-7.9,23.71,0,0,0,7.11-13.43-11.86-13.43C646.67,161.25,637.19,168.36,634.82,174.68Z"/><path class="cls-16" d="M607.16,226.85s23.49-7.95,35.17-15.81c4.29-2.89,12.51-7.59,20.15-3.95,1.29.61,16.9,19.76-2.64,30,0,0-3.82-1.49-23.62-6.17C628.1,229,614.27,230,607.16,226.85Z"/><path class="cls-16" d="M607.16,226.85s13.43,7.11,20.55,15c0,0,27.75,27.23,35.84,21.34,5.33-3.87,6.64-20.55-3.71-26.08C659.84,237.12,649.84,231.59,607.16,226.85Z"/><path class="cls-17" d="M581.08,94.86s-24.6,8.34-61.79-7.11c0,0,24.77-34.91,56.25-18.18C575.54,69.57,586.61,75.89,581.08,94.86Z"/><path class="cls-15" d="M519.29,87.75c-2.14-.94,42,39.51,57.83,29.24,0,0,9.07-11,4-22.13C581.08,94.86,542.86,98,519.29,87.75Z"/><path class="cls-4" d="M595.3,67.2s6.32-17.39-22.13-24.5c0,0-24.5-9.49-43.47,0,0,0,26.09-6.59,43.47,10.14C573.17,52.84,586.61,65.62,595.3,67.2Z"/><path class="cls-18" d="M625.73,75.89s-11.66,21.22-5.48,27.31c-1.35-1.27,0,1.77,5.48,4.7C625.73,107.9,628.5,96.68,625.73,75.89Z"/><path class="cls-4" d="M441.19,222.89s-4,41.1,8.69,53.75c0,0,77.06,4.82,101,13.43,11,4,34.49,26.44,36.86,26.44s13.68,8.28,48,3.56c19.84-2.73,19-9.22,19-9.22s5.06,33.32-78.45,35.34c0,0-33.29,13-53.74,50.58,0,0,3.95,66.39,6.32,105.11,0,0-8.65-50.6-22.92-53.74-28.92-6.36-66.43,60-83,84.57-9.15,13.57-26.08,60.06-26.08,60.06,4.74,0-7.11-54.25,0-70.34,15.07-34.13,61.64-49,95.63-114.6,0,0,36-46.17,37.14-64.8.45-6.95-9-21.62-15.8-22.92-15.22-2.9-41.84,28.08-56.91,24.5-21.06-5-55.58-66.4-55.58-66.4l.26-10.27-14.6-40.35S407,267.35,441.19,222.89Z"/><path class="cls-4" d="M381.91,573l-5.76-158s-16.24,21.35-24.22,29.27Z"/><path class="cls-3" d="M611.07,24.2S712.08-143.47,506-106.73c-3.89.69-211.2-52.87-241.65,80.52-3.6,15.79,2.18,28.6-41.29,49.94-20.17,9.9-55.93,34.63-48.21,75.87,2,10.87,3.82,34-22,48.88-25.34,14.57-41.42,36.71-23.68,90.23,3.84,11.6,26.22,28.61,32.56,43.2,9.87,22.7-5.36,35.91-13.74,52.42-8.68,17.12-15.95,64,42.36,64,24.67,0,7.53,47.09,28.77,64,28.45,22.66,53.74-11.07,79.39,2.71,27.53,14.79,90,25.63,122.88-39.77,9.41-18.75,18.64-52.12,6.8-75.31,0,0-26.6-42.33-26.95-64.15-.5-30.34,33.36-21.81,40-63,2-12.64-3.57-25.66-31.62-40.3-11.06-5.78-33.19-30,9.49-49,0,0,69.43-10,58.82-77.34,0,0-5.08-39.63,17.05-55.44,0,0,20.55-22.92,11.06-41.89C506-41.08,548.54-59.55,611.07,24.2Z"/><path class="cls-15" d="M528.4,90.91s8.81-2,11.18-10.28c0,0-4.08,12.09,0,12.68Z"/><path class="cls-15" d="M539.58,93.31A10.16,10.16,0,0,0,545.51,83s-.39,8.69,2,11.85h0Z"/><path class="cls-15" d="M547.49,94.86s4.34-4.35,5.13-9.88c0,0,1,9.27,3.86,10.06Z"/><path class="cls-15" d="M556.48,95s4.44-2.13,3.65-8.07c0,0,2.77,9.08,5.53,9.87l-2.76-.79Z"/><path class="cls-15" d="M562.8,96.33s4.45-2.13,3.66-8.07c0,0,2.77,9.08,5.53,9.87l-2.76-.79Z"/><path class="cls-15" d="M567.78,96.33s4.45-2.13,3.66-8.07c0,0,2.77,9.08,5.53,9.87l-2.76-.79Z"/><path class="cls-19" d="M678.8,161.25S661.68,147,647.29,148.6h25.46S681.69,155.72,678.8,161.25Z"/><path class="cls-20" d="M659.84,237.12s-5,6.3-23.62-6.17C636.22,231,665.65,222.89,659.84,237.12Z"/><path class="cls-4" d="M803.28,618.21s41.94,41.3-12.51,39.92c0,0-118.91-26.76-124.42,56.24,0,0-32.34,42.75-111.92,41.22,0,0-76.52-24.67-153.22,111.74,0,0-23.55,67.42-32.29,0,0,0-18.63-134.88-161.46-144.46,0,0-52.23-9.55-115.57-57.79C74,651.46,67,644.86,52.8,639.59c0,0-90.16-27-41-78.43,0,0-27-49.76-89.83-8.25,0,0-109.93,33.41-71.52,127.47,0,0,38.89,38.59,107.39,50.06l104,35.11s41.58,177.77,114.51,240.24c0,0,13.5,79.75,15.9,129,0,0,95.95,95.38,390.4,39.6,0,0,12.71-93.38,35.8-171.09,0,0,103.59-93.29,102.29-241.32,0,0,103.73,79.18,181.16,17.8,0,0,61.5-64.68,8.31-121.63C910.2,658.13,853.55,595.68,803.28,618.21Z"/><g class="cls-21"><rect class="cls-5" x="-231.62" y="77.07" width="1174.01" height="1203.04" transform="translate(710.78 1357.18) rotate(-180)"/><g class="cls-22"><polygon class="cls-20" points="-430.71 858.46 -319.45 976.54 647.12 -49.29 535.86 -167.38 -430.71 858.46"/><polygon class="cls-20" points="-319.39 976.3 -208.13 1094.38 758.45 68.55 647.19 -49.54 -319.39 976.3"/><polygon class="cls-20" points="-215.81 1102.9 -104.55 1220.99 862.02 195.15 750.76 77.07 -215.81 1102.9"/><polygon class="cls-20" points="-81.42 1192.99 29.85 1311.07 996.42 285.24 885.16 167.15 -81.42 1192.99"/><polygon class="cls-20" points="38.36 1301.74 149.62 1419.82 1116.2 393.99 1004.94 275.91 38.36 1301.74"/><polygon class="cls-20" points="141.94 1428.35 253.2 1546.43 1219.77 520.6 1108.51 402.51 141.94 1428.35"/></g></g></g><rect class="cls-2" x="505.06" y="601.64" width="505.06" height="505.06"/><g class="cls-23"><rect class="cls-3" x="-451.27" y="100.01" width="1912.65" height="1912.65" transform="translate(1010.12 2112.67) rotate(-180)"/><circle class="cls-8" cx="506.65" cy="1075.76" r="727.23"/><g class="cls-24"><g class="cls-25"><polygon class="cls-3" points="-858.65 1135.22 -745.52 1384.6 1411.12 380.41 1297.98 131.03 -858.65 1135.22"/></g></g><circle class="cls-11" cx="506.65" cy="1075.76" r="727.23"/><path class="cls-3" d="M671.84,639.87s101-167.67-105.07-130.93c-3.89.69-211.21-52.87-241.66,80.52-3.6,15.79,2.18,28.6-41.28,49.94-20.18,9.9-55.94,34.63-48.22,75.87,2,10.87,3.82,34-22,48.88-25.34,14.57-41.42,36.71-23.68,90.23,3.84,11.6,26.22,28.61,32.56,43.2,9.87,22.69-5.36,35.91-13.74,52.42-8.68,17.12-16,64,42.36,64,24.67,0,7.53,47.09,28.77,64,28.46,22.65,53.75-11.07,79.39,2.71,27.53,14.79,90,25.63,122.88-39.77,9.41-18.75,18.64-52.12,6.8-75.31,0,0-26.6-42.33-26.95-64.15-.5-30.35,33.36-21.81,40-63,2-12.64-3.57-25.66-31.62-40.3-11.06-5.78-33.19-30,9.49-49,0,0,69.43-10,58.82-77.34,0,0-5.08-39.63,17.05-55.44,0,0,20.55-22.92,11.07-41.89C566.77,574.59,609.31,556.12,671.84,639.87Z"/><path class="cls-4" d="M864.06,1233.88s41.93,41.3-12.52,39.92c0,0-118.91-26.76-124.42,56.24,0,0-32.34,42.75-111.92,41.22,0,0-76.52-24.67-153.22,111.74,0,0-23.55,67.42-32.29,0,0,0-18.63-134.88-161.46-144.46,0,0-52.22-9.55-115.57-57.79-17.89-13.62-24.84-20.22-39.09-25.49,0,0-90.16-27-41-78.43,0,0-27-49.76-89.83-8.25,0,0-109.93,33.41-71.51,127.47,0,0,38.89,38.59,107.39,50.06l104,35.11S164.19,1559,237.11,1621.46c0,0,13.5,79.75,15.9,129,0,0,95.95,95.38,390.4,39.6,0,0,12.71-93.38,35.81-171.09,0,0,103.58-93.29,102.28-241.32,0,0,103.73,79.18,181.16,17.8,0,0,61.5-64.68,8.32-121.63C971,1273.8,914.32,1211.35,864.06,1233.88Z"/><g class="cls-26"><rect class="cls-5" x="-170.84" y="692.74" width="1174.01" height="1203.04" transform="translate(832.33 2588.52) rotate(-180)"/><g class="cls-27"><polygon class="cls-20" points="-369.94 1474.13 -258.68 1592.21 707.9 566.38 596.64 448.29 -369.94 1474.13"/></g></g></g><rect class="cls-2" y="601.64" width="505.06" height="505.06" transform="translate(505.06 1708.34) rotate(-180)"/><g class="cls-28"><rect class="cls-3" x="-451.27" y="100.01" width="1912.65" height="1912.65"/><circle class="cls-8" cx="503.47" cy="1075.76" r="727.23"/><g class="cls-29"><g class="cls-30"><polygon class="cls-3" points="1868.78 1135.22 1755.64 1384.6 -401 380.41 -287.86 131.03 1868.78 1135.22"/></g></g><circle class="cls-11" cx="503.47" cy="1075.76" r="727.23"/><path class="cls-3" d="M338.28,639.87s-101-167.67,105.08-130.93c3.89.69,211.2-52.87,241.65,80.52,3.6,15.79-2.18,28.6,41.29,49.94,20.17,9.9,55.93,34.63,48.21,75.87-2,10.87-3.82,34,22,48.88,25.34,14.57,41.42,36.71,23.68,90.23C816.36,866,794,883,787.64,897.58c-9.87,22.69,5.36,35.91,13.74,52.42,8.68,17.12,16,64-42.36,64-24.67,0-7.53,47.09-28.77,64-28.45,22.65-53.75-11.07-79.39,2.71-27.53,14.79-90,25.63-122.88-39.77-9.41-18.75-18.64-52.12-6.8-75.31,0,0,26.6-42.33,27-64.15.5-30.35-33.36-21.81-40-63-2-12.64,3.57-25.66,31.62-40.3,11.06-5.78,33.19-30-9.49-49,0,0-69.43-10-58.82-77.34,0,0,5.08-39.63-17.05-55.44,0,0-20.55-22.92-11.06-41.89C443.36,574.59,400.81,556.12,338.28,639.87Z"/><path class="cls-4" d="M146.07,1233.88s-41.94,41.3,12.51,39.92c0,0,118.91-26.76,124.42,56.24,0,0,32.34,42.75,111.92,41.22,0,0,76.52-24.67,153.22,111.74,0,0,23.55,67.42,32.29,0,0,0,18.63-134.88,161.46-144.46,0,0,52.23-9.55,115.57-57.79,17.89-13.62,24.85-20.22,39.09-25.49,0,0,90.16-27,41-78.43,0,0,27-49.76,89.83-8.25,0,0,109.93,33.41,71.52,127.47,0,0-38.89,38.59-107.4,50.06l-104,35.11S845.94,1559,773,1621.46c0,0-13.5,79.75-15.9,129,0,0-96,95.38-390.4,39.6,0,0-12.71-93.38-35.81-171.09,0,0-103.58-93.29-102.28-241.32,0,0-103.73,79.18-181.16,17.8,0,0-61.5-64.68-8.32-121.63C39.14,1273.8,95.8,1211.35,146.07,1233.88Z"/><g class="cls-31"><rect class="cls-5" x="6.95" y="692.74" width="1174.01" height="1203.04"/><g class="cls-32"><polygon class="cls-20" points="1380.06 1474.13 1268.8 1592.21 302.23 566.38 413.49 448.29 1380.06 1474.13"/></g></g></g><rect class="cls-2" width="505.06" height="505.06" transform="translate(505.06 505.06) rotate(-180)"/><g class="cls-33"><rect class="cls-3" x="-390.49" y="-515.66" width="1912.65" height="1912.65"/><circle class="cls-8" cx="564.24" cy="460.1" r="727.23"/><g class="cls-34"><g class="cls-35"><polygon class="cls-3" points="1929.55 519.56 1816.41 768.93 -340.22 -235.26 -227.09 -484.63 1929.55 519.56"/><polygon class="cls-3" points="1648.11 988.54 1534.97 1237.92 -621.66 233.73 -508.52 -15.65 1648.11 988.54"/><polygon class="cls-3" points="1534.73 1237.58 1421.6 1486.95 -735.04 482.76 -621.9 233.39 1534.73 1237.58"/><polygon class="cls-5" points="1438.95 1495.51 1325.82 1744.88 -830.82 740.69 -717.68 491.31 1438.95 1495.51"/></g></g><circle class="cls-11" cx="564.24" cy="460.1" r="727.23"/><path class="cls-2" d="M1150.11,894.71c9.47-12.12,18.06-32.43,26.72-45.08-15.7-23.89-32-46.75-46.76-64,0,0-17.38-28.45-26.87-49,0,0-61.64-202.32-185.73-212.6,0,0-96.42-3.16-122.5-11.06,0,0-119.34-4.74-184.94-138.31V330.38l-1.58-62.44,30-83s23.71-52.16-31.61-63.23c0,0-91.68,12.65-71.92-98.79,0,0,19.76-96.42-59.28-66.78,0,0-87.72,36.75-91.28,119.73,0,0,15.41,26.08,0,32l-47,40.7s-11.78,7.66-3.17,18.18c5.34,6.52,4.75,4.74,4.75,4.74s15,11.86,12.64,21.34c0,0,2.37,9.49-3.95,14.23,0,0-9.7,4.65,6.11,30.73,0,0-13.63,16.61,1.53,32.85l3.42,13.87s-7.9,19-3.16,28.45c0,0,.79,31.62,78.25,33.2,0,0,44.26,19.76,53.74,50.58,0,0-3.16,88.52-6.32,105.11,0,0-52,31.43-60.86,33.2-4,.79-56.9,12.64-69.55,19.76,0,0-58.48,189.68-36.35,173.08,0,0,264.76,144,313.76,177.15,0,0,205.49-189.8,289.26-203.23,0,0,34,98,127.25,185.73,0,0,24.72,39,47.3,72.84A686.1,686.1,0,0,0,1150.11,894.71Z"/><path class="cls-15" d="M375.3,174.68c1.39,3.7-15-7.9-23.71,0,0,0-7.11-13.43,11.86-13.43C363.45,161.25,372.93,168.36,375.3,174.68Z"/><path class="cls-16" d="M403,226.85S379.47,218.9,367.79,211c-4.29-2.89-12.51-7.59-20.15-3.95-1.29.61-16.9,19.76,2.65,30,0,0,3.81-1.49,23.61-6.17C382,229,395.85,230,403,226.85Z"/><path class="cls-16" d="M403,226.85s-13.43,7.11-20.54,15c0,0-27.76,27.23-35.85,21.34-5.33-3.87-6.64-20.55,3.72-26.08C350.29,237.12,360.29,231.59,403,226.85Z"/><path class="cls-17" d="M429,94.86s24.61,8.34,61.79-7.11c0,0-24.77-34.91-56.25-18.18C434.58,69.57,423.51,75.89,429,94.86Z"/><path class="cls-15" d="M490.83,87.75c2.14-.94-42,39.51-57.83,29.24,0,0-9.07-11-4-22.13C429,94.86,467.26,98,490.83,87.75Z"/><path class="cls-4" d="M414.82,67.2S408.5,49.81,437,42.7c0,0,24.5-9.49,43.47,0,0,0-26.08-6.59-43.47,10.14C437,52.84,423.51,65.62,414.82,67.2Z"/><path class="cls-18" d="M384.39,75.89s11.66,21.22,5.48,27.31c1.35-1.27-.05,1.77-5.48,4.7C384.39,107.9,381.62,96.68,384.39,75.89Z"/><path class="cls-4" d="M568.93,222.89s4,41.1-8.69,53.75c0,0-77.06,4.82-101.05,13.43-11,4-34.49,26.44-36.86,26.44s-13.68,8.28-48,3.56c-19.84-2.73-19-9.22-19-9.22s-5,33.32,78.45,35.34c0,0,33.29,13,53.74,50.58,0,0-3.95,66.39-6.32,105.11,0,0,8.65-50.6,22.92-53.74,28.93-6.36,66.43,60,83,84.57,9.15,13.57,26.08,60.06,26.08,60.06-4.74,0,7.11-54.25,0-70.34-15.07-34.13-61.64-49-95.63-114.6,0,0-36-46.17-37.14-64.8-.45-6.95,9-21.62,15.8-22.92,15.22-2.9,41.84,28.08,56.91,24.5,21.06-5,55.58-66.4,55.58-66.4l-.26-10.27,14.6-40.35S603.12,267.35,568.93,222.89Z"/><path class="cls-4" d="M628.21,573,634,415s16.24,21.35,24.22,29.27Z"/><path class="cls-3" d="M399.05,24.2S298-143.47,504.13-106.73c3.89.69,211.2-52.87,241.65,80.52,3.6,15.79-2.18,28.6,41.29,49.94,20.17,9.9,55.93,34.63,48.21,75.87-2,10.87-3.82,34,22,48.88,25.34,14.57,41.42,36.71,23.69,90.23-3.85,11.6-26.23,28.61-32.57,43.2-9.87,22.7,5.36,35.91,13.74,52.42,8.68,17.12,16,64-42.36,64-24.67,0-7.52,47.09-28.77,64-28.45,22.66-53.74-11.07-79.39,2.71-27.53,14.79-90,25.63-122.88-39.77-9.41-18.75-18.64-52.12-6.79-75.31,0,0,26.59-42.33,26.94-64.15.5-30.34-33.36-21.81-40-63-2-12.64,3.58-25.66,31.62-40.3,11.06-5.78,33.19-30-9.49-49,0,0-69.43-10-58.82-77.34,0,0,5.08-39.63-17-55.44,0,0-20.55-22.92-11.06-41.89C504.13-41.08,461.58-59.55,399.05,24.2Z"/><path class="cls-15" d="M481.72,90.91s-8.81-2-11.18-10.28c0,0,4.08,12.09,0,12.68Z"/><path class="cls-15" d="M470.54,93.31A10.16,10.16,0,0,1,464.61,83s.4,8.69-2,11.85h0Z"/><path class="cls-15" d="M462.63,94.86s-4.34-4.35-5.13-9.88c0,0-1,9.27-3.85,10.06Z"/><path class="cls-15" d="M453.65,95S449.2,92.91,450,87c0,0-2.77,9.08-5.53,9.87l2.76-.79Z"/><path class="cls-15" d="M447.32,96.33s-4.45-2.13-3.66-8.07c0,0-2.76,9.08-5.53,9.87l2.77-.79Z"/><path class="cls-15" d="M442.34,96.33s-4.45-2.13-3.66-8.07c0,0-2.77,9.08-5.53,9.87l2.76-.79Z"/><path class="cls-19" d="M331.32,161.25S348.45,147,362.84,148.6H337.37S328.43,155.72,331.32,161.25Z"/><path class="cls-20" d="M350.29,237.12s5,6.3,23.61-6.17C373.9,231,344.47,222.89,350.29,237.12Z"/><path class="cls-4" d="M206.84,618.21s-41.94,41.3,12.51,39.92c0,0,118.91-26.76,124.43,56.24,0,0,32.33,42.75,111.92,41.22,0,0,76.51-24.67,153.21,111.74,0,0,23.56,67.42,32.29,0,0,0,18.63-134.88,161.46-144.46,0,0,52.23-9.55,115.57-57.79,17.89-13.62,24.85-20.22,39.09-25.49,0,0,90.16-27,41-78.43,0,0,27-49.76,89.83-8.25,0,0,109.93,33.41,71.52,127.47,0,0-38.89,38.59-107.39,50.06l-104,35.11s-41.58,177.77-114.51,240.24c0,0-13.5,79.75-15.9,129,0,0-96,95.38-390.4,39.6,0,0-12.71-93.38-35.8-171.09,0,0-103.59-93.29-102.29-241.32,0,0-103.73,79.18-181.16,17.8,0,0-61.5-64.68-8.31-121.63C99.92,658.13,156.58,595.68,206.84,618.21Z"/><g class="cls-36"><rect class="cls-5" x="67.72" y="77.07" width="1174.01" height="1203.04"/><g class="cls-37"><polygon class="cls-20" points="1440.83 858.46 1329.57 976.54 363 -49.29 474.26 -167.38 1440.83 858.46"/><polygon class="cls-20" points="1329.51 976.3 1218.25 1094.38 251.67 68.55 362.94 -49.54 1329.51 976.3"/><polygon class="cls-20" points="1225.93 1102.9 1114.67 1220.99 148.1 195.15 259.36 77.07 1225.93 1102.9"/><polygon class="cls-20" points="1091.54 1192.99 980.27 1311.07 13.7 285.24 124.96 167.15 1091.54 1192.99"/><polygon class="cls-20" points="971.76 1301.74 860.5 1419.82 -106.08 393.99 5.18 275.91 971.76 1301.74"/><polygon class="cls-20" points="868.18 1428.35 756.92 1546.43 -209.65 520.6 -98.39 402.51 868.18 1428.35"/></g></g></g><g class="cls-38"><rect class="cls-39" x="-1140.38" y="-197.66" width="1544.6" height="1598.61"/></g></svg>